<svg id="visual" viewBox="0 0 960 540" width="960" height="540" xmlns="http://www.w3.org/2000/svg" xmlns:xlink="http://www.w3.org/1999/xlink" version="1.1"><path d="M0 334L20 297.5C40 261 80 188 120 172.2C160 156.3 200 197.7 240 224C280 250.3 320 261.7 360 228.3C400 195 440 117 480 76.2C520 35.3 560 31.7 600 82C640 132.3 680 236.7 720 260.5C760 284.3 800 227.7 840 229C880 230.3 920 289.7 940 319.3L960 349L960 541L940 541C920 541 880 541 840 541C800 541 760 541 720 541C680 541 640 541 600 541C560 541 520 541 480 541C440 541 400 541 360 541C320 541 280 541 240 541C200 541 160 541 120 541C80 541 40 541 20 541L0 541Z" fill="#7281e4"></path><path d="M0 424L20 409.7C40 395.3 80 366.7 120 324.3C160 282 200 226 240 207.5C280 189 320 208 360 216C400 224 440 221 480 237.2C520 253.3 560 288.7 600 280.3C640 272 680 220 720 207.2C760 194.3 800 220.7 840 266.5C880 312.3 920 377.7 940 410.3L960 443L960 541L940 541C920 541 880 541 840 541C800 541 760 541 720 541C680 541 640 541 600 541C560 541 520 541 480 541C440 541 400 541 360 541C320 541 280 541 240 541C200 541 160 541 120 541C80 541 40 541 20 541L0 541Z" fill="#5b76ea"></path><path d="M0 316L20 347.7C40 379.3 80 442.7 120 460.7C160 478.7 200 451.3 240 419.5C280 387.7 320 351.3 360 332.2C400 313 440 311 480 335.7C520 360.3 560 411.7 600 446.3C640 481 680 499 720 485.7C760 472.3 800 427.7 840 393.3C880 359 920 335 940 323L960 311L960 541L940 541C920 541 880 541 840 541C800 541 760 541 720 541C680 541 640 541 600 541C560 541 520 541 480 541C440 541 400 541 360 541C320 541 280 541 240 541C200 541 160 541 120 541C80 541 40 541 20 541L0 541Z" fill="#396cf0"></path></svg>